<?xml version="1.0" encoding="UTF-8"?>
<svg xmlns="http://www.w3.org/2000/svg" viewBox="0 0 1200 604" font-family="DM Sans, Helvetica, Arial, sans-serif">
<rect width="1200" height="604" fill="#fafaf9"/>
<text x="20" y="32" font-size="18" font-weight="700" fill="#1c1917">Most 2062-1 Žihle — Harmonogram (sandbox Phase C)</text>
<text x="20" y="52" font-size="11" fill="#57534e">Celkem 319 dní (~10.6 měsíců) — limit ZD §5.3 = 30 měsíců = 900 dní</text>
<line x1="380" y1="50" x2="380" y2="564" stroke="#e7e5e4" stroke-width="1"/>
<text x="380" y="46" font-size="9" fill="#78716c" text-anchor="middle">0m</text>
<line x1="453.2853116191669" y1="50" x2="453.2853116191669" y2="564" stroke="#e7e5e4" stroke-width="1"/>
<text x="453.2853116191669" y="46" font-size="9" fill="#78716c" text-anchor="middle">1m</text>
<line x1="526.5706232383338" y1="50" x2="526.5706232383338" y2="564" stroke="#e7e5e4" stroke-width="1"/>
<text x="526.5706232383338" y="46" font-size="9" fill="#78716c" text-anchor="middle">2m</text>
<line x1="599.8559348575009" y1="50" x2="599.8559348575009" y2="564" stroke="#e7e5e4" stroke-width="1"/>
<text x="599.8559348575009" y="46" font-size="9" fill="#78716c" text-anchor="middle">3m</text>
<line x1="673.1412464766677" y1="50" x2="673.1412464766677" y2="564" stroke="#e7e5e4" stroke-width="1"/>
<text x="673.1412464766677" y="46" font-size="9" fill="#78716c" text-anchor="middle">4m</text>
<line x1="746.4265580958347" y1="50" x2="746.4265580958347" y2="564" stroke="#e7e5e4" stroke-width="1"/>
<text x="746.4265580958347" y="46" font-size="9" fill="#78716c" text-anchor="middle">5m</text>
<line x1="819.7118697150016" y1="50" x2="819.7118697150016" y2="564" stroke="#e7e5e4" stroke-width="1"/>
<text x="819.7118697150016" y="46" font-size="9" fill="#78716c" text-anchor="middle">6m</text>
<line x1="892.9971813341685" y1="50" x2="892.9971813341685" y2="564" stroke="#e7e5e4" stroke-width="1"/>
<text x="892.9971813341685" y="46" font-size="9" fill="#78716c" text-anchor="middle">7m</text>
<line x1="966.2824929533355" y1="50" x2="966.2824929533355" y2="564" stroke="#e7e5e4" stroke-width="1"/>
<text x="966.2824929533355" y="46" font-size="9" fill="#78716c" text-anchor="middle">8m</text>
<line x1="1039.5678045725024" y1="50" x2="1039.5678045725024" y2="564" stroke="#e7e5e4" stroke-width="1"/>
<text x="1039.5678045725024" y="46" font-size="9" fill="#78716c" text-anchor="middle">9m</text>
<line x1="1112.8531161916694" y1="50" x2="1112.8531161916694" y2="564" stroke="#e7e5e4" stroke-width="1"/>
<text x="1112.8531161916694" y="46" font-size="9" fill="#78716c" text-anchor="middle">10m</text>
<text x="370" y="78" font-size="10" fill="#1c1917" text-anchor="end">DUR + DSP + DPS (paralelně)</text>
<rect x="380" y="64" width="219.8559348575008" height="20" fill="#94a3b8" rx="2" ry="2"/>
<text x="384" y="78" font-size="9" fill="#1c1917">90.0d</text>
<text x="370" y="106" font-size="10" fill="#1c1917" text-anchor="end">SO 180 — Provizorium montáž</text>
<rect x="599.8559348575009" y="92" width="17.099906044472284" height="20" fill="#fbbf24" rx="2" ry="2"/>
<text x="370" y="134" font-size="10" fill="#1c1917" text-anchor="end">SO 001 — Demolice stávajícího mostu</text>
<rect x="616.955840901973" y="120" width="73.28531161916693" height="20" fill="#f87171" rx="2" ry="2"/>
<text x="620.955840901973" y="134" font-size="9" fill="#1c1917">30.0d</text>
<text x="370" y="162" font-size="10" fill="#1c1917" text-anchor="end">SO 201 — Podkladní beton</text>
<rect x="690.2411525211401" y="148" width="12.458502975258378" height="20" fill="#60a5fa" rx="2" ry="2"/>
<text x="370" y="190" font-size="10" fill="#1c1917" text-anchor="end">SO 201 — Plošný základ — levá opěra</text>
<rect x="702.6996554963985" y="176" width="10.74851237081115" height="20" fill="#60a5fa" rx="2" ry="2"/>
<text x="370" y="218" font-size="10" fill="#1c1917" text-anchor="end">SO 201 — Plošný základ — pravá opěra</text>
<rect x="713.4481678672096" y="204" width="10.74851237081115" height="20" fill="#60a5fa" rx="2" ry="2"/>
<text x="370" y="246" font-size="10" fill="#1c1917" text-anchor="end">SO 201 — Dřík opěry — levá</text>
<rect x="724.1966802380207" y="232" width="8.794237394300032" height="20" fill="#60a5fa" rx="2" ry="2"/>
<text x="370" y="274" font-size="10" fill="#1c1917" text-anchor="end">SO 201 — Dřík opěry — pravá</text>
<rect x="732.9909176323207" y="260" width="8.794237394300032" height="20" fill="#60a5fa" rx="2" ry="2"/>
<text x="370" y="302" font-size="10" fill="#1c1917" text-anchor="end">SO 201 — Mostovková deska</text>
<rect x="741.7851550266207" y="288" width="60.338239899780774" height="20" fill="#60a5fa" rx="2" ry="2"/>
<text x="745.7851550266207" y="302" font-size="9" fill="#1c1917">24.7d</text>
<text x="370" y="330" font-size="10" fill="#1c1917" text-anchor="end">SO 201 — Závěrné zídky</text>
<rect x="802.1233949264015" y="316" width="8.061384278108362" height="20" fill="#60a5fa" rx="2" ry="2"/>
<text x="370" y="358" font-size="10" fill="#1c1917" text-anchor="end">SO 201 — Římsa — levá</text>
<rect x="810.1847792045098" y="344" width="8.794237394300032" height="20" fill="#60a5fa" rx="2" ry="2"/>
<text x="370" y="386" font-size="10" fill="#1c1917" text-anchor="end">SO 201 — Římsa — pravá (s 3× DN75 chráničkou)</text>
<rect x="818.97901659881" y="372" width="8.794237394300032" height="20" fill="#60a5fa" rx="2" ry="2"/>
<text x="370" y="414" font-size="10" fill="#1c1917" text-anchor="end">SO 201 — Přechodová deska — levá</text>
<rect x="827.7732539931098" y="400" width="10.99279674287504" height="20" fill="#60a5fa" rx="2" ry="2"/>
<text x="370" y="442" font-size="10" fill="#1c1917" text-anchor="end">SO 201 — Přechodová deska — pravá</text>
<rect x="838.7660507359849" y="428" width="10.99279674287504" height="20" fill="#60a5fa" rx="2" ry="2"/>
<text x="370" y="470" font-size="10" fill="#1c1917" text-anchor="end">SO 201 — Mostní svršek (izolace + vozovka)</text>
<rect x="849.7588474788599" y="456" width="73.28531161916693" height="20" fill="#60a5fa" rx="2" ry="2"/>
<text x="853.7588474788599" y="470" font-size="9" fill="#1c1917">30.0d</text>
<text x="370" y="498" font-size="10" fill="#1c1917" text-anchor="end">SO 290 — Směrová úprava silnice</text>
<rect x="923.044159098027" y="484" width="146.57062323833387" height="20" fill="#86efac" rx="2" ry="2"/>
<text x="927.044159098027" y="498" font-size="9" fill="#1c1917">60.0d</text>
<text x="370" y="526" font-size="10" fill="#1c1917" text-anchor="end">SO 180 — Provizorium demontáž</text>
<rect x="1069.6147823363608" y="512" width="17.099906044472284" height="20" fill="#fbbf24" rx="2" ry="2"/>
<text x="370" y="554" font-size="10" fill="#1c1917" text-anchor="end">Pasport + Geodézie + Kolaudace</text>
<rect x="1086.714688380833" y="540" width="73.28531161916693" height="20" fill="#a78bfa" rx="2" ry="2"/>
<text x="1090.714688380833" y="554" font-size="9" fill="#1c1917">30.0d</text>
</svg>
