<?xml version="1.0" encoding="UTF-8"?>
<svg xmlns="http://www.w3.org/2000/svg" width="297mm" height="420mm" viewBox="0 0 297 420" style="background:#fff">
  <defs>
    <marker id="north" viewBox="0 0 10 10" refX="5" refY="5" markerWidth="4" markerHeight="4" orient="auto-start-reverse">
      <path d="M 0 0 L 10 5 L 0 10 z" fill="#000"/>
    </marker>
  </defs>
  <rect x="3" y="3" width="291" height="414" fill="none" stroke="#000" stroke-width="0.5"/>
  <rect x="15" y="15" width="267" height="25" fill="#f5f5f5" stroke="#000" stroke-width="0.3"/>
  <text x="20" y="23" font-family="Arial" font-size="3.5" font-weight="bold">
    C.2.1 Situace stavby M 1:500
  </text>
  <text x="20" y="28" font-family="Arial" font-size="2.8">
    Most ev.č. 2062-1 u obce Žihle, přestavba (D&amp;B) — DUR podklady
  </text>
  <text x="20" y="33" font-family="Arial" font-size="2.3" fill="#555">
    Investor: SÚSPK | Vyhotovil: STAVAGENT Phase E | Datum: 2026-05-07 | Souř. systém: S-JTSK + Bpv
  </text>
  <text x="252" y="23" font-family="Arial" font-size="3" font-weight="bold">
    A3 / 1:500
  </text>
  <rect x="15" y="40" width="267" height="330" fill="#fff" stroke="#000" stroke-width="0.4"/>
  <defs><clipPath id="draw-clip">
    <rect x="15" y="40" width="267" height="330"/>
  </clipPath></defs>
  <g clip-path="url(#draw-clip)">
    <polyline points="251.74,344.22 237.80,319.08 222.28,279.88 219.36,265.76 201.92,246.26" fill="none" stroke="#ccc" stroke-width="0.15" opacity="0.7"/>
    <polyline points="75.68,258.84 -65.64,389.76 -131.66,445.94 -225.14,514.42 -244.34,525.46" fill="none" stroke="#ccc" stroke-width="0.15" opacity="0.7"/>
    <polyline points="132.32,373.76 119.16,378.22 124.52,394.00 120.30,395.46 123.68,404.58 127.98,403.02 130.76,410.82 143.94,406.06 132.32,373.76" fill="none" stroke="#ccc" stroke-width="0.15" opacity="0.7"/>
    <polyline points="61.94,239.10 54.04,227.72 53.02,213.70 56.20,202.90 67.30,188.46 60.06,177.18" fill="none" stroke="#ccc" stroke-width="0.15" opacity="0.7"/>
    <polyline points="219.68,404.82 230.04,401.12 257.22,389.90 270.88,383.84" fill="none" stroke="#ccc" stroke-width="0.15" opacity="0.7"/>
    <polyline points="128.58,352.42 101.86,372.88 102.12,376.82 119.80,432.24" fill="none" stroke="#ccc" stroke-width="0.15" opacity="0.7"/>
    <polyline points="163.34,333.68 161.84,338.24 158.46,343.68 150.14,352.48 145.58,350.48 141.78,347.54 127.26,349.60" fill="none" stroke="#ccc" stroke-width="0.15" opacity="0.7"/>
    <polyline points="207.40,214.14 198.72,225.56 195.28,230.58" fill="none" stroke="#ccc" stroke-width="0.15" opacity="0.7"/>
    <polyline points="60.70,-156.92 57.44,-28.80 59.38,20.74 59.30,24.26" fill="none" stroke="#ccc" stroke-width="0.15" opacity="0.7"/>
    <polyline points="705.76,401.20 698.48,393.22 499.36,341.30 422.44,319.74 227.88,257.30" fill="none" stroke="#ccc" stroke-width="0.15" opacity="0.7"/>
    <polyline points="169.28,403.40 153.68,408.82 153.02,419.94" fill="none" stroke="#ccc" stroke-width="0.15" opacity="0.7"/>
    <polyline points="-945.68,448.38 -886.22,451.28 -859.42,444.88 -834.42,434.32 -806.94,430.94 -762.30,440.62 -713.66,444.78 -672.06,442.74 -590.96,425.08 -524.86,406.32 -406.16,385.40 -237.86,344.94 -196.86,340.60 -95.22,308.80 32.30,249.16 61.94,239.10" fill="none" stroke="#ccc" stroke-width="0.15" opacity="0.7"/>
    <polyline points="157.60,426.86 170.52,467.44 136.26,490.88 108.46,518.42 68.68,637.10 35.04,743.04 2.44,794.10 -14.12,888.58 -27.20,988.18 -23.16,1063.50 -19.14,1090.00 -41.62,1091.72 -46.22,1090.94 -85.26,1093.58 -100.88,1073.16 -120.30,1069.64 -141.44,1053.16 -169.80,1049.32 -206.24,965.34 -227.60,923.74 -263.68,904.24 -369.20,925.82 -424.34,969.68 -488.74,1000.76" fill="none" stroke="#ccc" stroke-width="0.15" opacity="0.7"/>
    <polyline points="219.68,404.82 299.84,565.44 316.16,617.98 326.90,745.28 345.72,865.36" fill="none" stroke="#ccc" stroke-width="0.15" opacity="0.7"/>
    <polyline points="119.80,432.24 110.52,440.08 92.36,452.84 80.18,468.42 69.24,489.18 35.10,572.24 27.70,586.34 11.30,595.58 -36.74,601.58 -61.92,602.96" fill="none" stroke="#ccc" stroke-width="0.15" opacity="0.7"/>
    <polyline points="94.12,209.36 78.10,191.78 66.30,169.04" fill="none" stroke="#ccc" stroke-width="0.15" opacity="0.7"/>
    <polyline points="270.88,383.84 295.42,448.12 314.28,511.70 347.58,626.94 384.40,729.46 411.92,823.10" fill="none" stroke="#ccc" stroke-width="0.15" opacity="0.7"/>
    <polyline points="59.20,27.74 65.92,117.00 82.96,169.62 92.70,185.42 118.94,208.04 141.22,216.28 156.56,217.08" fill="none" stroke="#ccc" stroke-width="0.15" opacity="0.7"/>
    <polyline points="241.42,232.44 427.00,299.46 507.52,321.44 714.20,374.92" fill="none" stroke="#ccc" stroke-width="0.15" opacity="0.7"/>
    <polyline points="186.30,341.10 189.14,396.50 169.28,403.40" fill="none" stroke="#ccc" stroke-width="0.15" opacity="0.7"/>
    <polyline points="153.02,419.94 220.12,395.30 247.94,384.04 258.76,378.50 262.48,366.04" fill="none" stroke="#ccc" stroke-width="0.15" opacity="0.7"/>
    <polyline points="188.16,241.00 187.36,242.16 183.78,247.02" fill="none" stroke="#ccc" stroke-width="0.15" opacity="0.7"/>
    <polyline points="127.26,349.60 104.86,365.30 103.72,363.02 127.10,345.14 128.10,344.92 128.88,340.62 144.46,333.30 156.66,307.68 157.04,301.84 155.46,300.42 109.36,340.96 90.08,355.22" fill="none" stroke="#ccc" stroke-width="0.15" opacity="0.7"/>
    <polyline points="104.76,233.14 87.96,255.72 99.54,272.14 113.54,296.24 73.16,331.94 -31.50,429.00 -99.46,486.82 -196.72,558.08 -333.18,636.50 -471.76,739.02 -620.16,861.56 -899.84,1089.52" fill="none" stroke="#ccc" stroke-width="0.15" opacity="0.7"/>
    <polyline points="-11.28,480.70 53.28,418.90 87.24,375.86 90.08,355.22" fill="none" stroke="#ccc" stroke-width="0.15" opacity="0.7"/>
    <polyline points="201.92,246.26 197.62,252.56 180.00,277.86 171.66,288.14 164.78,295.32 163.12,304.16 163.34,333.68" fill="none" stroke="#ccc" stroke-width="0.15" opacity="0.7"/>
    <polyline points="-230.48,563.64 -203.28,548.00 -106.84,477.36 -39.06,419.68 85.86,303.92 92.78,289.72 88.96,277.92 75.68,258.84" fill="none" stroke="#ccc" stroke-width="0.15" opacity="0.7"/>
    <polyline points="104.76,233.14 91.18,225.58 94.12,209.36" fill="none" stroke="#ccc" stroke-width="0.15" opacity="0.7"/>
    <polyline points="510.72,1028.36 498.58,971.14 475.58,907.36 454.04,867.94 422.22,817.42 413.24,797.36 392.04,727.08 356.12,624.08 321.92,509.34 303.00,445.56 276.98,377.40 262.76,347.60 245.04,315.66 230.12,277.94 227.88,257.30" fill="none" stroke="#ccc" stroke-width="0.15" opacity="0.7"/>
    <polyline points="-30.64,495.48 -17.10,478.58 -17.68,447.16 -25.28,448.30 -53.54,476.34 -123.76,533.32" fill="none" stroke="#ccc" stroke-width="0.15" opacity="0.7"/>
    <polyline points="-1026.38,1202.08 -744.04,973.44 -466.56,745.78 -408.86,701.28 -372.26,670.46 -326.70,640.42 -294.70,625.20 -162.16,545.32 -109.58,505.88 150.30,294.70 170.08,271.72 183.78,247.02" fill="none" stroke="#ccc" stroke-width="0.15" opacity="0.7"/>
    <polyline points="60.06,177.18 49.76,151.14 44.52,120.96 40.10,69.54 38.12,0.04 37.92,-33.90 37.08,-47.34 35.78,-159.86 16.90,-272.34 -1.38,-313.80 -63.64,-401.08 -134.76,-571.30 -173.34,-638.60" fill="none" stroke="#ccc" stroke-width="0.15" opacity="0.7"/>
    <polyline points="90.08,355.22 47.92,392.58 -10.26,438.62 -11.28,480.70" fill="none" stroke="#ccc" stroke-width="0.15" opacity="0.7"/>
    <polyline points="69.42,249.86 50.70,255.08 29.74,262.86 -57.50,312.64 -98.02,342.74 -225.54,378.86 -291.96,394.34" fill="none" stroke="#ccc" stroke-width="0.15" opacity="0.7"/>
    <polyline points="183.78,247.02 158.12,248.14 147.84,246.82 104.76,233.14" fill="none" stroke="#ccc" stroke-width="0.15" opacity="0.7"/>
    <polyline points="-864.90,1224.34 -835.38,1212.16 -831.12,1201.76 -802.90,1187.04 -789.10,1171.84 -757.62,1155.30 -752.58,1148.90 -731.94,1149.56 -695.08,1116.56 -665.20,1098.54 -653.04,1102.88 -593.84,1077.58 -534.58,1030.22 -493.80,996.10 -425.98,962.82 -370.90,919.28 -262.30,899.78 -223.66,920.32 -198.84,964.84 -165.46,1044.10 -140.12,1049.12 -118.68,1065.82 -99.50,1068.52 -84.10,1085.64 -49.90,1081.76 -45.56,1078.88 -43.98,1051.88 -47.48,995.84 -34.64,910.48 -25.88,792.62 29.18,692.26 42.30,641.32 90.16,520.22 119.02,478.44 148.42,443.74 144.78,431.84" fill="none" stroke="#ccc" stroke-width="0.15" opacity="0.7"/>
    <polyline points="13.30,603.66 23.84,600.98 35.36,590.26 41.36,574.00 75.50,492.68 86.38,471.34 96.88,459.26 115.12,446.44 129.78,437.66 144.78,431.84" fill="none" stroke="#ccc" stroke-width="0.15" opacity="0.7"/>
    <text x="162.26" y="367.69" font-family="Arial" font-size="1.5" fill="#888" text-anchor="middle">1756</text>
    <text x="180.12" y="363.71" font-family="Arial" font-size="1.5" fill="#888" text-anchor="middle">1757</text>
    <text x="224.16" y="363.35" font-family="Arial" font-size="1.5" fill="#888" text-anchor="middle">1758</text>
    <text x="133.16" y="388.05" font-family="Arial" font-size="1.5" fill="#888" text-anchor="middle">420</text>
    <text x="200.26" y="215.52" font-family="Arial" font-size="1.5" fill="#888" text-anchor="middle">681</text>
    <text x="120.66" y="367.72" font-family="Arial" font-size="1.5" fill="#888" text-anchor="middle">680</text>
    <circle cx="101.26" cy="114.44" r="1.5" fill="#fff8dc" stroke="#c80" stroke-width="0.3"/>
    <text x="101.26" y="114.44" font-family="Arial" font-size="2" font-weight="bold" fill="#a40" text-anchor="middle" dy="0.7">1714</text>
    <circle cx="237.98" cy="215.81" r="1.5" fill="#fff8dc" stroke="#c80" stroke-width="0.3"/>
    <text x="237.98" y="215.81" font-family="Arial" font-size="2" font-weight="bold" fill="#a40" text-anchor="middle" dy="0.7">1843</text>
    <circle cx="198.24" cy="295.51" r="1.5" fill="#fff8dc" stroke="#c80" stroke-width="0.3"/>
    <text x="198.24" y="295.51" font-family="Arial" font-size="2" font-weight="bold" fill="#a40" text-anchor="middle" dy="0.7">1755</text>
    <polygon points="149.07,192.77 160.64,206.56 147.93,217.23 136.36,203.44" fill="#ffeecc" stroke="#c00" stroke-width="0.7" opacity="0.8"/>
    <text x="148.50" y="203.00" font-family="Arial" font-size="2.5" font-weight="bold" fill="#900" text-anchor="middle">Most ev.č. 2062-1</text>
    <text x="148.50" y="207.00" font-family="Arial" font-size="1.8" fill="#600" text-anchor="middle">9.0 × 8.30 m, šikm. 50°</text>
    <line x1="264.41" y1="173.94" x2="32.59" y2="236.06" stroke="#39c" stroke-width="1.2" stroke-dasharray="3,1.5" opacity="0.7"/>
    <text x="269.41" y="175.94" font-family="Arial" font-size="2" font-style="italic" fill="#06c">Mladotický potok</text>
    <line x1="101.91" y1="31.13" x2="195.09" y2="378.87" stroke="#666" stroke-width="2" opacity="0.9"/>
    <line x1="101.91" y1="31.13" x2="195.09" y2="378.87" stroke="#fff" stroke-width="0.4" stroke-dasharray="3,2"/>
    <text x="193.09" y="375.87" font-family="Arial" font-size="2.2" font-weight="bold" fill="#333">silnice III/206 2 → Potvorov</text>
    <text x="86.91" y="35.13" font-family="Arial" font-size="2.2" font-weight="bold" fill="#333">→ obec Žihle</text>
    <polyline points="129.87,135.45 84.67,159.99 100.20,217.94 115.73,275.90 167.13,274.55" fill="none" stroke="#0a0" stroke-width="1.5" stroke-dasharray="2,1" opacity="0.85"/>
    <text x="100.20" y="222.94" font-family="Arial" font-size="2" font-weight="bold" fill="#060" text-anchor="middle">SO 180 provizorium (116 m)</text>
    <rect x="113.50" y="175.00" width="70.00" height="60.00" fill="none" stroke="#fa0" stroke-width="0.6" stroke-dasharray="1.5,1.5" opacity="0.7"/>
    <text x="114.50" y="178.00" font-family="Arial" font-size="2" font-weight="bold" fill="#a60">Zábor staveniště ~1000 m²</text>
  </g>
  <line x1="272" y1="58" x2="272" y2="50" stroke="#000" stroke-width="0.6" marker-end="url(#north)"/>
  <text x="272" y="48" font-family="Arial" font-size="3" font-weight="bold" text-anchor="middle">S</text>
  <text x="20" y="376" font-family="Arial" font-size="2.5" font-weight="bold">Měřítko 1:500</text>
  <rect x="20.00" y="378" width="20.00" height="2" fill="#000" stroke="#000" stroke-width="0.2"/>
  <text x="20.00" y="383" font-family="Arial" font-size="1.8">0</text>
  <rect x="40.00" y="378" width="20.00" height="2" fill="#fff" stroke="#000" stroke-width="0.2"/>
  <text x="40.00" y="383" font-family="Arial" font-size="1.8">10</text>
  <rect x="60.00" y="378" width="20.00" height="2" fill="#000" stroke="#000" stroke-width="0.2"/>
  <text x="60.00" y="383" font-family="Arial" font-size="1.8">20</text>
  <rect x="80.00" y="378" width="20.00" height="2" fill="#fff" stroke="#000" stroke-width="0.2"/>
  <text x="80.00" y="383" font-family="Arial" font-size="1.8">30</text>
  <rect x="100.00" y="378" width="20.00" height="2" fill="#000" stroke="#000" stroke-width="0.2"/>
  <text x="100.00" y="383" font-family="Arial" font-size="1.8">40</text>
  <text x="120.00" y="383" font-family="Arial" font-size="1.8">50 m</text>
  <rect x="105" y="378" width="180" height="22" fill="#fafafa" stroke="#000" stroke-width="0.3"/>
  <text x="108" y="382" font-family="Arial" font-size="2.5" font-weight="bold">Legenda:</text>
  <rect x="110" y="384.5" width="3" height="2.2" fill="#ffeecc" stroke="#c00" stroke-width="0.3"/>
  <text x="116" y="386.8" font-family="Arial" font-size="1.9">Most ev.č. 2062-1 (nový rámový integrál.)</text>
  <rect x="198" y="384.5" width="3" height="2.2" fill="#fff8dc" stroke="#c80" stroke-width="0.3"/>
  <text x="204" y="386.8" font-family="Arial" font-size="1.9">Parcely se souhlasem (16 ze 24)</text>
  <line x1="110" y1="390.5" x2="114" y2="390.5" stroke="#0a0" stroke-width="1.2"/>
  <text x="116" y="391.3" font-family="Arial" font-size="1.9">SO 180 provizorium 116 m (GPX)</text>
  <line x1="198" y1="390.5" x2="202" y2="390.5" stroke="#fa0" stroke-width="1.2"/>
  <text x="204" y="391.3" font-family="Arial" font-size="1.9">Zábor staveniště ~1000 m² (T0-04 SO 801)</text>
  <line x1="110" y1="395.0" x2="114" y2="395.0" stroke="#39c" stroke-width="1.2"/>
  <text x="116" y="395.8" font-family="Arial" font-size="1.9">Mladotický potok (Povodí Vltavy)</text>
  <line x1="198" y1="395.0" x2="202" y2="395.0" stroke="#666" stroke-width="1.2"/>
  <text x="204" y="395.8" font-family="Arial" font-size="1.9">silnice III/206 2 (km 0,793)</text>
  <line x1="110" y1="399.5" x2="114" y2="399.5" stroke="#aaa" stroke-width="1.2"/>
  <text x="116" y="400.3" font-family="Arial" font-size="1.9">Hranice parcel (DXF kadastr)</text>
  <text x="15" y="415" font-family="Arial" font-size="2" fill="#888">
    Sandbox výstup STAVAGENT Phase E. Souř. systém S-JTSK (EPSG:5514). Center: (-816220, -1037705). Zdroj: PROJEKT_MOST_HLAVNI.dxf + parcels_and_consents.yaml.
  </text>
</svg>